<svg width="15" height="17" viewBox="0 0 15 17" fill="none" xmlns="http://www.w3.org/2000/svg">
<path d="M3.16227 9C3.05479 9 2.94801 9.01733 2.84604 9.05132L0.683759 9.77208C0.275416 9.90819 -1.47969e-05 10.2903 -1.41121e-05 10.7208L-8.89244e-06 14.0018C-8.01383e-06 14.5541 0.447707 15.0018 0.999991 15.0018H1.76411C1.91924 15.0018 2.07223 15.0379 2.21101 15.1072L5.59473 16.7976C5.85231 16.9262 6.15099 16.9384 6.41718 16.8286C7.78779 16.2635 12.1946 14.4289 14.4741 13.275C14.801 13.1095 15 12.772 15 12.4056V12.3257C15 11.6614 14.3641 11.1817 13.7253 11.3642L8.29745 12.915C8.10368 12.9704 7.89769 12.9659 7.7065 12.9022L5.55489 12.185C5.29995 12.1 5.22357 11.7764 5.41359 11.5864C5.46963 11.5304 5.54255 11.4943 5.6211 11.4837L8.13305 11.1465C8.62946 11.0799 8.99999 10.6562 8.99999 10.1554L8.99999 10C8.99999 9.44771 8.55227 9 7.99999 9H3.16227Z" fill="#218CEF"/>
<circle cx="5" cy="2" r="2" fill="#218CEF"/>
<circle cx="11.5" cy="5.5" r="2.5" fill="#218CEF"/>
</svg>
